<svg xmlns="http://www.w3.org/2000/svg" viewBox="0 0 24 24" width="128" height="128"><defs><linearGradient id="m" gradientUnits="userSpaceOnUse" x1="0" y1="2" x2="0" y2="22"><stop offset="0" stop-color="#ffffff"/><stop offset=".5" stop-color="#e2e7ee"/><stop offset="1" stop-color="#97a3b5"/></linearGradient><linearGradient id="g" gradientUnits="userSpaceOnUse" x1="0" y1="2" x2="0" y2="11.5"><stop offset="0" stop-color="#ffffff" stop-opacity=".85"/><stop offset="1" stop-color="#ffffff" stop-opacity="0"/></linearGradient><clipPath id="c"><rect x="0" y="0" width="24" height="11.2"/></clipPath><filter id="s" x="-.2" y="-.2" width="1.4" height="1.4"><feGaussianBlur stdDeviation=".6"/></filter></defs><g fill="#000000" stroke="#000000" opacity=".5" filter="url(#s)" transform="translate(0 .7)" stroke-width="2.2" stroke-linecap="round" stroke-linejoin="round"><path stroke="none" fill-rule="evenodd" d="M2.8 12a9.2 9.2 0 1 0 18.4 0a9.2 9.2 0 1 0 -18.4 0zM7.6 12a4.4 4.4 0 1 0 8.8 0a4.4 4.4 0 1 0 -8.8 0z"/><path fill="none" stroke="#000000" stroke-width="2.6" stroke-linecap="butt" d="M8.9 8.9 5.5 5.5M15.1 15.1l3.4 3.4M15.1 8.9l3.4-3.4M8.9 15.1l-3.4 3.4"/></g><g fill="url(#m)" stroke="url(#m)" stroke-width="2.2" stroke-linecap="round" stroke-linejoin="round"><path stroke="none" fill-rule="evenodd" d="M2.8 12a9.2 9.2 0 1 0 18.4 0a9.2 9.2 0 1 0 -18.4 0zM7.6 12a4.4 4.4 0 1 0 8.8 0a4.4 4.4 0 1 0 -8.8 0z"/><path fill="none" stroke="#2b3850" stroke-width="2.6" stroke-linecap="butt" d="M8.9 8.9 5.5 5.5M15.1 15.1l3.4 3.4M15.1 8.9l3.4-3.4M8.9 15.1l-3.4 3.4"/></g><g fill="url(#g)" stroke="url(#g)" clip-path="url(#c)" stroke-width="2.2" stroke-linecap="round" stroke-linejoin="round"><path stroke="none" fill-rule="evenodd" d="M2.8 12a9.2 9.2 0 1 0 18.4 0a9.2 9.2 0 1 0 -18.4 0zM7.6 12a4.4 4.4 0 1 0 8.8 0a4.4 4.4 0 1 0 -8.8 0z"/><path fill="none" stroke="none" stroke-width="2.6" stroke-linecap="butt" d="M8.9 8.9 5.5 5.5M15.1 15.1l3.4 3.4M15.1 8.9l3.4-3.4M8.9 15.1l-3.4 3.4"/></g></svg>
