<svg xmlns="http://www.w3.org/2000/svg" viewBox="0 0 24 24" width="128" height="128"><defs><linearGradient id="m" gradientUnits="userSpaceOnUse" x1="0" y1="2" x2="0" y2="22"><stop offset="0" stop-color="#ffffff"/><stop offset=".5" stop-color="#e2e7ee"/><stop offset="1" stop-color="#97a3b5"/></linearGradient><linearGradient id="g" gradientUnits="userSpaceOnUse" x1="0" y1="2" x2="0" y2="11.5"><stop offset="0" stop-color="#ffffff" stop-opacity=".85"/><stop offset="1" stop-color="#ffffff" stop-opacity="0"/></linearGradient><clipPath id="c"><rect x="0" y="0" width="24" height="11.2"/></clipPath><filter id="s" x="-.2" y="-.2" width="1.4" height="1.4"><feGaussianBlur stdDeviation=".6"/></filter></defs><g fill="#000000" stroke="#000000" opacity=".5" filter="url(#s)" transform="translate(0 .7)" stroke-width="2.2" stroke-linecap="round" stroke-linejoin="round"><path fill="none" stroke-width="2.4" d="M2.5 9.2a14 14 0 0 1 19 0M5.6 12.7a9.5 9.5 0 0 1 12.8 0M8.7 16.1a5 5 0 0 1 6.6 0"/><circle stroke="none" cx="12" cy="19.3" r="1.6"/></g><g fill="url(#m)" stroke="url(#m)" stroke-width="2.2" stroke-linecap="round" stroke-linejoin="round"><path fill="none" stroke-width="2.4" d="M2.5 9.2a14 14 0 0 1 19 0M5.6 12.7a9.5 9.5 0 0 1 12.8 0M8.7 16.1a5 5 0 0 1 6.6 0"/><circle stroke="none" cx="12" cy="19.3" r="1.6"/></g><g fill="url(#g)" stroke="url(#g)" clip-path="url(#c)" stroke-width="2.2" stroke-linecap="round" stroke-linejoin="round"><path fill="none" stroke-width="2.4" d="M2.5 9.2a14 14 0 0 1 19 0M5.6 12.7a9.5 9.5 0 0 1 12.8 0M8.7 16.1a5 5 0 0 1 6.6 0"/><circle stroke="none" cx="12" cy="19.3" r="1.6"/></g></svg>
